<?xml version="1.0" encoding="UTF-8" standalone="no"?>
<!-- Created with Inkscape (http://www.inkscape.org/) -->

<svg
        version="1.1"
        id="svg2"
        width="861.33331"
        height="333.33334"
        viewBox="0 0 861.33331 333.33334"
        sodipodi:docname="google-play-badge.eps"
        xmlns:inkscape="http://www.inkscape.org/namespaces/inkscape"
        xmlns:sodipodi="http://sodipodi.sourceforge.net/DTD/sodipodi-0.dtd"
        xmlns="http://www.w3.org/2000/svg"
>
    <defs
            id="defs6">
        <clipPath
                clipPathUnits="userSpaceOnUse"
                id="clipPath18">
            <path
                    d="M 0,2207.03 H 6460 V 292.961 H 0 Z"
                    id="path16"/>
        </clipPath>
        <clipPath
                clipPathUnits="userSpaceOnUse"
                id="clipPath40">
            <path
                    d="M 0,2207.04 H 6460 V 292.961 H 0 Z"
                    id="path38"/>
        </clipPath>
    </defs>
    <sodipodi:namedview
            id="namedview4"
            pagecolor="#ffffff"
            bordercolor="#000000"
            borderopacity="0.25"
            inkscape:showpageshadow="2"
            inkscape:pageopacity="0.0"
            inkscape:pagecheckerboard="0"
            inkscape:deskcolor="#d1d1d1"/>
    <g
            id="g8"
            inkscape:groupmode="layer"
            inkscape:label="ink_ext_XXXXXX"
            transform="matrix(1.3333333,0,0,-1.3333333,0,333.33333)">
        <g
                id="g10"
                transform="scale(0.1)">
            <g
                    id="g12">
                <g
                        id="g14"
                        clip-path="url(#clipPath18)">
                    <path
                            d="M 6220.74,292.969 H 239.258 C 107.668,292.969 0,400.629 0,532.23 v 1435.55 c 0,131.6 107.668,239.26 239.258,239.26 H 6220.74 c 131.59,0 239.26,-107.66 239.26,-239.26 V 532.23 c 0,-131.601 -107.67,-239.261 -239.26,-239.261"
                            style="fill:#100f0d;fill-opacity:1;fill-rule:nonzero;stroke:none"
                            id="path20"/>
                    <path
                            d="M 6220.74,2207.03 H 239.258 C 107.668,2207.03 0,2099.36 0,1967.77 V 532.219 C 0,400.621 107.668,292.961 239.258,292.961 H 6220.74 c 131.59,0 239.26,107.66 239.26,239.258 V 1967.77 c 0,131.59 -107.67,239.26 -239.26,239.26 m 0,-38.28 c 110.83,0 200.98,-90.15 200.98,-200.98 V 532.219 c 0,-110.828 -90.15,-200.981 -200.98,-200.981 H 239.258 c -110.824,0 -200.9767,90.153 -200.9767,200.981 V 1967.77 c 0,110.83 90.1527,200.98 200.9767,200.98 H 6220.74"
                            style="fill:#a2a2a1;fill-opacity:1;fill-rule:nonzero;stroke:none"
                            id="path22"/>
                    <path
                            d="m 5117.09,771.48 h 89.29 v 598.19 h -89.29 z m 804.24,382.72 -102.35,-259.36 h -3.07 L 5709.68,1154.2 H 5613.5 L 5772.8,791.719 5681.98,590.07 h 93.12 l 245.52,564.13 z M 5414.96,839.43 c -29.28,0 -70.05,14.64 -70.05,50.808 0,46.184 50.77,63.844 94.65,63.844 39.24,0 57.71,-8.473 81.59,-20 -6.94,-55.422 -54.65,-94.652 -106.19,-94.652 m 10.77,327.83 c -64.65,0 -131.64,-28.47 -159.35,-91.54 l 79.29,-33.12 c 16.94,33.12 48.48,43.89 81.59,43.89 46.18,0 93.12,-27.71 93.89,-76.95 v -6.17 c -16.18,9.23 -50.82,23.06 -93.12,23.06 -85.42,0 -172.41,-46.942 -172.41,-134.649 0,-80.062 70.05,-131.601 148.53,-131.601 60.05,0 93.12,26.898 113.94,58.48 h 3.06 v -46.18 h 86.18 v 229.35 c 0,106.19 -79.24,165.43 -181.6,165.43 m -551.83,-85.9 h -127 v 205.1 h 127 c 66.76,0 104.65,-55.32 104.65,-102.55 0,-46.37 -37.89,-102.55 -104.65,-102.55 m -2.29,288.31 H 4657.66 V 771.48 h 89.24 v 226.622 h 124.71 c 98.95,0 196.24,71.688 196.24,185.808 0,114.13 -97.29,185.76 -196.24,185.76 M 3704.93,839.328 c -61.68,0 -113.31,51.633 -113.31,122.551 0,71.681 51.63,124.131 113.31,124.131 60.91,0 108.67,-52.45 108.67,-124.131 0,-70.918 -47.76,-122.551 -108.67,-122.551 m 102.5,281.372 h -3.06 c -20.05,23.88 -58.58,45.51 -107.14,45.51 -101.79,0 -195.05,-89.44 -195.05,-204.331 0,-114.078 93.26,-202.75 195.05,-202.75 48.56,0 87.09,21.582 107.14,46.269 h 3.06 v -29.277 c 0,-77.902 -41.59,-119.492 -108.67,-119.492 -54.74,0 -88.67,39.293 -102.55,72.453 l -77.85,-32.402 c 22.34,-53.969 81.73,-120.25 180.4,-120.25 104.84,0 193.51,61.679 193.51,211.992 v 365.438 h -84.84 z M 3953.9,771.48 h 89.44 v 598.24 h -89.44 z m 221.27,197.34 c -2.3,78.67 60.92,118.72 106.37,118.72 35.51,0 65.56,-17.71 75.56,-43.17 z m 277.54,67.85 c -16.99,45.51 -68.62,129.54 -174.23,129.54 -104.84,0 -191.93,-82.5 -191.93,-203.569 0,-114.071 86.32,-203.512 201.93,-203.512 93.31,0 147.24,57.043 169.64,90.199 l -69.39,46.274 c -23.16,-33.922 -54.74,-56.274 -100.25,-56.274 -45.46,0 -77.85,20.82 -98.67,61.633 l 272.14,112.599 z m -2168.07,67.04 v -86.32 h 206.58 c -6.18,-48.57 -22.35,-84.031 -47,-108.671 -30.09,-30.098 -77.13,-63.219 -159.58,-63.219 -127.24,0 -226.68,102.5 -226.68,229.74 0,127.19 99.44,229.69 226.68,229.69 68.62,0 118.72,-26.94 155.71,-61.63 l 60.91,60.86 c -51.68,49.34 -120.25,87.14 -216.62,87.14 -174.23,0 -320.7,-141.88 -320.7,-316.06 0,-174.279 146.47,-316.111 320.7,-316.111 94.03,0 164.94,30.871 220.45,88.672 57.04,57.039 74.79,137.187 74.79,201.979 0,20.05 -1.53,38.52 -4.64,53.93 z m 530.1,-264.382 c -61.63,0 -114.84,50.871 -114.84,123.313 0,73.269 53.21,123.369 114.84,123.369 61.68,0 114.89,-50.1 114.89,-123.369 0,-72.442 -53.21,-123.313 -114.89,-123.313 m 0,326.882 c -112.55,0 -204.28,-85.61 -204.28,-203.569 0,-117.141 91.73,-203.512 204.28,-203.512 112.55,0 204.33,86.371 204.33,203.512 0,117.959 -91.78,203.569 -204.33,203.569 m 445.69,-326.882 c -61.68,0 -114.89,50.871 -114.89,123.313 0,73.269 53.21,123.369 114.89,123.369 61.69,0 114.85,-50.1 114.85,-123.369 0,-72.442 -53.16,-123.313 -114.85,-123.313 m 0,326.882 c -112.54,0 -204.28,-85.61 -204.28,-203.569 0,-117.141 91.74,-203.512 204.28,-203.512 112.55,0 204.28,86.371 204.28,203.512 0,117.959 -91.73,203.569 -204.28,203.569"
                            style="fill:#ffffff;fill-opacity:1;fill-rule:nonzero;stroke:none"
                            id="path24"/>
                    <path
                            d="M 991.355,1277.56 481.879,736.828 c 0.047,-0.09 0.047,-0.238 0.094,-0.328 15.648,-58.719 69.242,-101.93 132.886,-101.93 25.457,0 49.332,6.891 69.817,18.95 l 1.625,0.96 573.459,330.891 -268.405,292.189"
                            style="fill:#eb3131;fill-opacity:1;fill-rule:nonzero;stroke:none"
                            id="path26"/>
                    <path
                            d="m 1506.76,1369.63 -0.47,0.34 -247.59,143.51 -278.927,-248.21 279.927,-279.84 246.25,142.07 c 43.16,23.36 72.5,68.86 72.5,121.31 0,52.16 -28.91,97.42 -71.69,120.82"
                            style="fill:#f6b60b;fill-opacity:1;fill-rule:nonzero;stroke:none"
                            id="path28"/>
                    <path
                            d="m 481.867,1763.11 c -3.062,-11.29 -4.687,-23.16 -4.687,-35.41 V 772.191 c 0,-12.25 1.625,-24.113 4.738,-35.363 l 526.942,526.902 -526.993,499.38"
                            style="fill:#5778c5;fill-opacity:1;fill-rule:nonzero;stroke:none"
                            id="path30"/>
                    <path
                            d="m 995.117,1249.95 263.663,263.62 -572.784,332.09 c -20.816,12.49 -45.125,19.66 -71.109,19.66 -63.645,0 -117.332,-43.3 -132.981,-102.06 0,-0.05 -0.047,-0.1 -0.047,-0.15 l 513.258,-513.16"
                            style="fill:#3bad49;fill-opacity:1;fill-rule:nonzero;stroke:none"
                            id="path32"/>
                </g>
            </g>
            <g
                    id="g34">
                <g
                        id="g36"
                        clip-path="url(#clipPath40)">
                    <path
                            d="m 2019.44,1593.57 c -19.71,14.42 -33.45,34.69 -41.21,60.78 l 43.29,17.48 c 4.44,-16.65 12.35,-30.25 23.73,-40.8 11.37,-10.55 25.12,-15.82 41.22,-15.82 14.98,0 27.68,3.89 38.08,11.66 10.41,7.77 15.62,18.46 15.62,32.06 0,12.49 -4.58,22.82 -13.74,31.02 -9.16,8.18 -24.98,16.16 -47.46,23.93 l -18.73,6.66 c -20.27,7.22 -37.12,17.28 -50.59,30.19 -13.45,12.9 -20.18,30.04 -20.18,51.41 0,14.7 3.95,28.31 11.86,40.8 7.91,12.49 19.01,22.34 33.3,29.56 14.3,7.21 30.46,10.82 48.51,10.82 25.81,0 46.48,-6.31 62.03,-18.94 15.54,-12.64 26.08,-26.85 31.64,-42.67 l -41.22,-17.48 c -2.77,9.98 -8.6,18.58 -17.48,25.81 -8.89,7.2 -20.4,10.82 -34.56,10.82 -13.6,0 -25.12,-3.62 -34.55,-10.82 -9.44,-7.23 -14.15,-16.39 -14.15,-27.49 0,-10.27 4.23,-18.8 12.69,-25.6 8.46,-6.8 21.58,-13.25 39.34,-19.36 l 19.15,-6.66 c 25.54,-8.88 45.23,-20.4 59.12,-34.55 13.88,-14.16 20.81,-33.03 20.81,-56.62 0,-19.43 -4.92,-35.74 -14.77,-48.91 -9.86,-13.19 -22.49,-22.97 -37.89,-29.36 -15.41,-6.38 -31.16,-9.57 -47.25,-9.57 -24.71,0 -46.91,7.22 -66.61,21.65"
                            style="fill:#ffffff;fill-opacity:1;fill-rule:nonzero;stroke:none"
                            id="path42"/>
                    <path
                            d="m 2226.34,1625.21 156.11,208.15 H 2233 v 43.3 h 202.33 v -46.62 L 2280.46,1621.88 H 2437 v -43.3 h -210.66 v 46.63"
                            style="fill:#ffffff;fill-opacity:1;fill-rule:nonzero;stroke:none"
                            id="path44"/>
                    <path
                            d="m 2494.86,1876.66 h 180.68 v -43.3 h -134.89 v -84.09 h 121.56 v -43.3 h -121.56 v -84.09 h 134.89 v -43.3 h -180.68 v 298.08"
                            style="fill:#ffffff;fill-opacity:1;fill-rule:nonzero;stroke:none"
                            id="path46"/>
                    <path
                            d="m 2842.88,1737.61 c 14.44,0 26.58,4.59 36.44,13.75 9.84,9.14 14.78,20.66 14.78,34.55 0,12.76 -4.52,23.93 -13.54,33.51 -9.01,9.57 -21.02,14.36 -36.01,14.36 h -59.12 v -96.17 z m -103.24,139.05 h 104.49 c 18.04,0 34.35,-3.89 48.92,-11.65 14.57,-7.78 26.08,-18.61 34.56,-32.48 8.46,-13.88 12.7,-29.55 12.7,-47.05 0,-19.98 -6.46,-37.67 -19.36,-53.07 -12.91,-15.4 -29.08,-25.75 -48.5,-31.02 l -0.42,-2.08 82.02,-118.23 v -2.5 h -52.87 l -79.53,116.98 h -36.22 v -116.98 h -45.79 v 298.08"
                            style="fill:#ffffff;fill-opacity:1;fill-rule:nonzero;stroke:none"
                            id="path48"/>
                    <path
                            d="m 3001.5,1876.66 h 180.68 v -43.3 h -134.89 v -84.09 h 121.56 v -43.3 h -121.56 v -84.09 h 134.89 v -43.3 H 3001.5 v 298.08"
                            style="fill:#ffffff;fill-opacity:1;fill-rule:nonzero;stroke:none"
                            id="path50"/>
                    <path
                            d="m 3226.72,1625.21 156.12,208.15 h -149.46 v 43.3 h 202.33 v -46.62 l -154.87,-208.16 h 156.54 v -43.3 h -210.66 v 46.63"
                            style="fill:#ffffff;fill-opacity:1;fill-rule:nonzero;stroke:none"
                            id="path52"/>
                    <path
                            d="m 3589.32,1621.88 c 33.87,0 60.17,9.37 78.9,28.1 18.73,18.73 28.09,44.61 28.09,77.65 0,33.01 -9.36,58.9 -28.09,77.63 -18.73,18.74 -45.03,28.1 -78.9,28.1 h -48.29 v -211.48 z m -94.08,254.78 h 95.33 c 30.81,0 57.67,-6.24 80.56,-18.73 22.9,-12.49 40.51,-30.05 52.87,-52.67 12.35,-22.63 18.52,-48.49 18.52,-77.63 0,-29.15 -6.17,-55.04 -18.52,-77.65 -12.36,-22.63 -29.97,-40.18 -52.87,-52.67 -22.89,-12.49 -49.75,-18.73 -80.56,-18.73 h -95.33 v 298.08"
                            style="fill:#ffffff;fill-opacity:1;fill-rule:nonzero;stroke:none"
                            id="path54"/>
                    <path
                            d="m 4008.54,1621.04 c 14.42,0 26.01,4.38 34.75,13.12 8.75,8.74 13.12,19.22 13.12,31.43 0,12.21 -4.51,22.76 -13.53,31.64 -9.02,8.88 -21.02,13.32 -36.01,13.32 h -69.11 v -89.51 z m -7.08,130.32 c 13.88,0 24.98,4.22 33.3,12.69 8.33,8.46 12.49,18.24 12.49,29.34 0,11.11 -4.1,20.75 -12.28,28.94 -8.19,8.19 -18.8,12.28 -31.85,12.28 h -65.36 v -83.25 z m -109.49,125.3 h 111.57 c 15.82,0 30.53,-3.47 44.13,-10.4 13.59,-6.95 24.36,-16.45 32.27,-28.53 7.91,-12.07 11.86,-25.46 11.86,-40.16 0,-14.72 -3.68,-27.55 -11.03,-38.52 -7.36,-10.97 -17.14,-19.35 -29.36,-25.19 v -2.08 c 15.55,-5.27 27.9,-14.02 37.06,-26.23 9.15,-12.21 13.73,-26.64 13.73,-43.29 0,-16.38 -4.23,-30.88 -12.69,-43.5 -8.47,-12.64 -19.85,-22.48 -34.14,-29.56 -14.3,-7.09 -29.91,-10.62 -46.83,-10.62 h -116.57 v 298.08"
                            style="fill:#ffffff;fill-opacity:1;fill-rule:nonzero;stroke:none"
                            id="path56"/>
                    <path
                            d="m 4162.56,1876.66 h 180.69 v -43.3 h -134.9 v -84.09 h 121.57 v -43.3 h -121.57 v -84.09 h 134.9 v -43.3 h -180.69 v 298.08"
                            style="fill:#ffffff;fill-opacity:1;fill-rule:nonzero;stroke:none"
                            id="path58"/>
                    <path
                            d="m 4402.77,1587.74 c -6.12,6.1 -9.16,13.46 -9.16,22.06 0,8.61 3.04,15.96 9.16,22.07 6.09,6.09 13.59,9.16 22.48,9.16 8.87,0 16.3,-2.99 22.26,-8.96 5.97,-5.96 8.96,-13.39 8.96,-22.27 0,-8.6 -2.99,-15.96 -8.96,-22.06 -5.96,-6.11 -13.39,-9.16 -22.26,-9.16 -8.89,0 -16.39,3.05 -22.48,9.16 z m 0,153.62 c -6.12,6.1 -9.16,13.46 -9.16,22.07 0,8.59 3.04,15.95 9.16,22.05 6.09,6.11 13.59,9.16 22.48,9.16 8.87,0 16.3,-2.98 22.26,-8.94 5.97,-5.98 8.96,-13.4 8.96,-22.27 0,-8.61 -2.99,-15.97 -8.96,-22.07 -5.96,-6.11 -13.39,-9.16 -22.26,-9.16 -8.89,0 -16.39,3.05 -22.48,9.16"
                            style="fill:#ffffff;fill-opacity:1;fill-rule:nonzero;stroke:none"
                            id="path60"/>
                </g>
            </g>
        </g>
    </g>
</svg>
